<svg width="19" height="19" viewBox="0 0 19 19" fill="none" xmlns="http://www.w3.org/2000/svg">
<path d="M12.2983 17.0666C11.8398 17.0656 11.388 16.9566 10.9795 16.7483C8.96126 15.6939 7.21362 14.1878 5.87273 12.3474C4.53183 10.5069 3.63387 8.38179 3.24877 6.13748C3.14629 5.60722 3.19741 5.05873 3.39614 4.55655C3.59486 4.05437 3.93291 3.61941 4.37049 3.30287L5.70442 2.3479C6.15172 2.02339 6.70958 1.88981 7.25534 1.9765C7.80111 2.0632 8.29011 2.36309 8.61482 2.81023L9.50159 4.03047C9.8265 4.47898 9.96029 5.03803 9.87362 5.58503C9.78695 6.13204 9.4869 6.62235 9.03926 6.94845L8.16007 7.56994C8.84011 9.08414 9.82581 10.4414 11.0553 11.5566L11.9497 10.9275C12.3988 10.6046 12.9573 10.472 13.5037 10.5586C14.0501 10.6451 14.5403 10.9439 14.8676 11.3898L15.7392 12.6177C15.9035 12.8399 16.0219 13.0925 16.0876 13.3609C16.1533 13.6293 16.1649 13.9081 16.1219 14.181C16.0789 14.4539 15.982 14.7156 15.837 14.9508C15.6919 15.1859 15.5015 15.3899 15.2769 15.5508L13.9657 16.5058C13.4837 16.8653 12.8996 17.0618 12.2983 17.0666ZM5.05262 4.21995C4.79654 4.40648 4.59721 4.66036 4.47679 4.95339C4.35637 5.24642 4.31957 5.5671 4.37049 5.87979C4.71692 7.96259 5.54207 9.93656 6.78097 11.6463C8.01988 13.356 9.63872 14.7549 11.5101 15.7327C11.7944 15.8713 12.1118 15.9278 12.4265 15.8956C12.7413 15.8635 13.0407 15.7441 13.2912 15.5508L14.6099 14.5958C14.711 14.5223 14.7965 14.4296 14.8615 14.3229C14.9265 14.2163 14.9698 14.0978 14.9889 13.9743C15.0264 13.7267 14.9667 13.4741 14.8222 13.2695L13.9278 12.0416C13.7795 11.8405 13.5576 11.706 13.3106 11.6677C13.0636 11.6294 12.8114 11.6902 12.609 11.837L11.3812 12.7238C11.2815 12.8012 11.1588 12.8432 11.0326 12.8432C10.9063 12.8432 10.7837 12.8012 10.6839 12.7238C9.03529 11.3455 7.75409 9.5799 6.95499 7.5851C6.90584 7.46898 6.89783 7.33955 6.93229 7.21825C6.96675 7.09696 7.04161 6.99107 7.14447 6.91813L8.37229 6.02379C8.47308 5.95177 8.5585 5.86039 8.62356 5.75498C8.68863 5.64957 8.73204 5.53225 8.75125 5.40988C8.78875 5.16221 8.729 4.90963 8.58451 4.70502L7.69017 3.47719C7.54295 3.27481 7.32163 3.13889 7.07454 3.09913C6.82745 3.05937 6.57467 3.11899 6.37139 3.26498L5.05262 4.21995Z" fill="#DD2D4A" stroke="#DD2D4A" stroke-width="0.454434"/>
</svg>
