<svg width="16" height="17" viewBox="0 0 16 17" fill="none" xmlns="http://www.w3.org/2000/svg">
<path d="M7.36844 12.4873H8.63156V9.11886H12V7.85575H8.63156V4.48732L7.36844 4.48732V7.85575H4.00001L4.00001 9.11886H7.36844V12.4873ZM8.00141 16.4873C6.89494 16.4873 5.85491 16.2773 4.88132 15.8574C3.90772 15.4375 3.06082 14.8676 2.34064 14.1477C1.62044 13.4278 1.05028 12.5813 0.63017 11.6082C0.210057 10.635 0 9.59519 0 8.48872C0 7.38224 0.209966 6.34221 0.629897 5.36862C1.04983 4.39502 1.61972 3.54813 2.33959 2.82794C3.05946 2.10775 3.90598 1.53759 4.87915 1.11748C5.8523 0.697362 6.89212 0.487305 7.99859 0.487305C9.10506 0.487305 10.1451 0.697271 11.1187 1.1172C12.0923 1.53713 12.9392 2.10703 13.6594 2.82689C14.3796 3.54677 14.9497 4.39329 15.3698 5.36646C15.7899 6.33961 16 7.37942 16 8.48589C16 9.59237 15.79 10.6324 15.3701 11.606C14.9502 12.5796 14.3803 13.4265 13.6604 14.1467C12.9405 14.8669 12.094 15.437 11.1209 15.8571C10.1477 16.2772 9.10788 16.4873 8.00141 16.4873ZM8 15.2242C9.88071 15.2242 11.4737 14.5715 12.779 13.2663C14.0842 11.961 14.7369 10.368 14.7369 8.4873C14.7369 6.6066 14.0842 5.01361 12.779 3.70835C11.4737 2.40308 9.88071 1.75045 8 1.75045C6.11929 1.75045 4.52631 2.40308 3.22104 3.70835C1.91577 5.01361 1.26314 6.6066 1.26314 8.4873C1.26314 10.368 1.91577 11.961 3.22104 13.2663C4.52631 14.5715 6.11929 15.2242 8 15.2242Z" fill="#1A1A1B"/>
</svg>
