<svg width="5" height="9" viewBox="0 0 5 9" fill="none" xmlns="http://www.w3.org/2000/svg">
<path d="M0.455322 4.49998C0.455322 4.5925 0.469777 4.67923 0.498687 4.76018C0.527598 4.84112 0.576745 4.91629 0.646129 4.98567L3.83781 8.17736C3.96502 8.30456 4.12691 8.36816 4.3235 8.36816C4.52009 8.36816 4.68199 8.30456 4.80919 8.17736C4.9364 8.05015 5 7.88826 5 7.69167C5 7.49508 4.9364 7.33318 4.80919 7.20598L2.1032 4.49998L4.80919 1.79399C4.9364 1.66679 5 1.50489 5 1.3083C5 1.11171 4.9364 0.949816 4.80919 0.822611C4.68199 0.695406 4.52009 0.631804 4.3235 0.631804C4.12691 0.631804 3.96502 0.695406 3.83781 0.822611L0.646129 4.01429C0.576745 4.08368 0.527598 4.15884 0.498687 4.23979C0.469777 4.32074 0.455322 4.40747 0.455322 4.49998Z" fill="#89898C"/>
</svg>
