<svg width="15" height="17" viewBox="0 0 15 17" fill="none" xmlns="http://www.w3.org/2000/svg">
<path d="M12.834 3.15136C11.5752 1.88003 9.9036 1.10036 8.1206 0.952997C6.3376 0.80563 4.56063 1.30026 3.11021 2.34768C1.65979 3.39509 0.631406 4.92634 0.210548 6.66521C-0.21031 8.40408 0.00406816 10.2361 0.815012 11.8308L0.0189693 15.6956C0.0107095 15.734 0.0104755 15.7738 0.0182822 15.8123C0.026089 15.8509 0.0417681 15.8874 0.0643393 15.9197C0.0974047 15.9686 0.144603 16.0062 0.199632 16.0276C0.254661 16.049 0.314901 16.053 0.372308 16.0393L4.16004 15.1415C5.75029 15.9319 7.56938 16.1325 9.29365 15.7076C11.0179 15.2827 12.5355 14.2598 13.5764 12.821C14.6173 11.3821 15.1139 9.6207 14.978 7.85006C14.842 6.07942 14.0823 4.41444 12.834 3.15136ZM11.653 12.5774C10.7821 13.4459 9.66056 14.0192 8.44652 14.2165C7.23248 14.4138 5.98713 14.2252 4.88597 13.6773L4.35802 13.416L2.03589 13.966L2.04276 13.9371L2.52396 11.5999L2.26549 11.0898C1.70284 9.98478 1.50436 8.73004 1.69848 7.50532C1.89259 6.2806 2.46935 5.14874 3.34613 4.27187C4.44781 3.17053 5.9418 2.55184 7.49957 2.55184C9.05734 2.55184 10.5513 3.17053 11.653 4.27187C11.6624 4.28263 11.6725 4.29274 11.6833 4.30212C12.7713 5.4063 13.3787 6.89583 13.373 8.44599C13.3673 9.99614 12.7491 11.4812 11.653 12.5774Z" fill="#DD2D4A"/>
<path d="M11.447 10.8627C11.1624 11.3109 10.7128 11.8594 10.1477 11.9956C9.15782 12.2348 7.63861 12.0038 5.74818 10.2412L5.7248 10.2206C4.0626 8.6794 3.6309 7.39666 3.73539 6.37927C3.79313 5.80183 4.27433 5.27938 4.67991 4.93842C4.74404 4.88369 4.82007 4.84473 4.90195 4.82464C4.98382 4.80456 5.06926 4.80391 5.15142 4.82275C5.23359 4.84158 5.31021 4.87939 5.37516 4.93313C5.44011 4.98688 5.49157 5.05508 5.52545 5.13227L6.13726 6.50713C6.17702 6.59628 6.19175 6.69456 6.17989 6.79145C6.16802 6.88833 6.12999 6.98016 6.06989 7.05707L5.76055 7.45853C5.69418 7.54142 5.65412 7.64228 5.64555 7.74813C5.63697 7.85398 5.66027 7.95997 5.71243 8.05247C5.88566 8.35631 6.30087 8.80314 6.76145 9.21697C7.27839 9.68443 7.85171 10.112 8.21467 10.2577C8.31179 10.2974 8.41857 10.3071 8.52125 10.2855C8.62392 10.264 8.71778 10.2122 8.79074 10.1368L9.14958 9.77517C9.21882 9.70689 9.30492 9.6582 9.39911 9.63404C9.49331 9.60989 9.59222 9.61115 9.68577 9.63768L11.139 10.0501C11.2192 10.0747 11.2926 10.1173 11.3538 10.1747C11.415 10.232 11.4622 10.3026 11.492 10.381C11.5217 10.4594 11.5331 10.5436 11.5253 10.627C11.5175 10.7105 11.4907 10.7911 11.447 10.8627Z" fill="#DD2D4A"/>
</svg>
